<svg width="1024" height="1024" viewBox="0 0 1024 1024" fill="none" xmlns="http://www.w3.org/2000/svg">
<path d="M433 874C319.652 874 262.977 874 222.665 846.105C207.122 835.351 193.649 821.878 182.895 806.335C155 766.023 155 709.348 155 596L155 427C155 313.652 155 256.977 182.895 216.665C193.649 201.122 207.122 187.649 222.665 176.895C262.977 149 319.652 149 433 149" stroke="black" stroke-width="90" stroke-linecap="round"/>
<path d="M591 874C704.348 874 761.023 874 801.335 846.105C816.878 835.351 830.351 821.878 841.105 806.335C869 766.023 869 709.348 869 596L869 427C869 313.652 869 256.977 841.105 216.665C830.351 201.122 816.878 187.649 801.335 176.895C761.023 149 704.348 149 591 149" stroke="black" stroke-width="90" stroke-linecap="round"/>
<path d="M564.673 605.889C550.6 593.757 407.967 480.796 407.967 480.796C376.57 451.475 398.852 408 435.314 408H492.539C516.34 408 532.039 426.705 532.039 426.705C532.039 426.705 615.315 543.002 623.418 554.326C633.546 568.48 636.105 587.69 623.418 601.845C605.293 622.066 578.747 618.022 564.673 605.889Z" fill="black"/>
</svg>
